<?xml version="1.0" standalone="no"?>
<!DOCTYPE svg PUBLIC "-//W3C//DTD SVG 20010904//EN"
 "http://www.w3.org/TR/2001/REC-SVG-20010904/DTD/svg10.dtd">
<svg version="1.0" xmlns="http://www.w3.org/2000/svg"
 width="500.000000pt" height="500.000000pt" viewBox="0 0 500.000000 500.000000"
 preserveAspectRatio="xMidYMid meet">

<g transform="translate(0.000000,500.000000) scale(0.100000,-0.100000)"
fill="white">
<path d="M2060 4619 c-144 -13 -261 -70 -371 -179 -124 -123 -179 -259 -179
-446 0 -56 -3 -109 -6 -118 -5 -14 -46 -16 -358 -16 -344 0 -352 -1 -418 -24
-127 -45 -244 -149 -303 -270 -50 -103 -56 -164 -53 -576 l3 -378 31 -39 c52
-65 78 -73 250 -73 242 0 307 -20 403 -126 79 -86 95 -129 96 -254 0 -94 -3
-111 -27 -163 -35 -75 -117 -160 -187 -194 -54 -27 -63 -28 -256 -33 -125 -3
-207 -9 -220 -17 -31 -18 -73 -65 -84 -96 -18 -47 -14 -745 4 -832 36 -171
161 -319 326 -386 51 -21 77 -23 444 -31 414 -10 469 -7 520 33 52 42 60 70
65 259 6 161 8 180 32 230 70 151 232 251 382 237 128 -12 240 -72 299 -159
47 -71 57 -125 57 -310 0 -105 4 -178 11 -191 26 -51 72 -86 127 -98 73 -15
768 -6 832 10 118 31 250 128 314 230 68 107 70 120 76 521 l5 365 130 6 c144
7 191 17 280 61 94 46 148 90 217 178 121 153 162 381 103 569 -52 163 -172
299 -330 371 -99 46 -120 51 -275 59 l-125 6 -5 360 c-5 316 -8 366 -24 410
-51 139 -169 262 -304 317 -55 22 -70 23 -422 28 l-365 5 -6 120 c-11 206 -62
331 -188 456 -143 142 -298 197 -501 178z m171 -310 c47 -12 117 -66 153 -117
51 -75 59 -112 65 -324 7 -215 9 -223 75 -272 26 -20 43 -21 454 -26 413 -5
428 -6 467 -27 37 -20 69 -49 106 -97 11 -16 15 -95 19 -450 6 -481 4 -467 77
-523 l36 -28 206 -5 c241 -6 277 -16 356 -101 70 -75 88 -124 83 -228 -5 -105
-30 -161 -100 -227 -79 -74 -95 -78 -329 -84 -203 -5 -206 -5 -247 -32 -78
-52 -76 -39 -82 -523 -5 -466 -3 -449 -64 -513 -60 -64 -70 -66 -397 -70
l-296 -3 -6 108 c-3 59 -11 133 -18 163 -45 209 -210 383 -435 460 -327 113
-697 -45 -843 -361 -46 -100 -62 -164 -70 -279 l-6 -85 -295 0 c-256 0 -300 3
-331 17 -52 24 -114 99 -128 153 -7 27 -11 149 -11 318 l0 275 123 4 c88 4
141 12 192 28 204 65 364 224 442 440 24 68 27 88 27 215 0 129 -2 146 -28
220 -102 286 -358 465 -665 465 l-91 0 0 278 c0 320 6 355 67 414 79 75 59 72
534 78 l426 5 36 25 c58 40 66 70 69 285 3 180 5 193 29 245 34 73 76 120 138
154 83 45 159 52 262 25z"/>
<path d="M2067 3040 c-87 -22 -162 -82 -191 -152 -19 -45 -21 -145 -4 -202 21
-68 87 -124 229 -194 105 -51 128 -67 139 -92 44 -107 -156 -121 -372 -26 -17
8 -18 -1 -18 -102 l0 -109 73 -24 c61 -20 91 -24 197 -23 106 0 134 4 184 24
124 48 194 157 183 286 -9 117 -64 177 -234 255 -110 51 -153 82 -153 114 0
71 110 85 252 31 l63 -23 37 91 c20 50 33 94 30 98 -4 3 -38 16 -77 28 -79 25
-271 36 -338 20z"/>
<path d="M2640 2580 l0 -460 300 0 300 0 0 100 0 100 -180 0 -180 0 0 360 0
360 -120 0 -120 0 0 -460z"/>
</g>
</svg>
